# xmcd
#
# Track frame offsets: 
#        150
#        12748
#        25499
#        41019
#        50169
#        62767
#        79792
#        90516
#        106266
#        119693
#        131991
#        152091
#        167764
#        186736
#
# Disc length: 2706 seconds
#
# Revision: 1
# Processed by: cddbd v1.5.2PL0 Copyright (c) Steve Scherf et al.
# Submitted via: ExactAudioCopy v0.95b4
#
DISCID=cd0a900e
DTITLE=Duo San Juan and Mariela - Leticia - Guitarra Y Amor
DYEAR=2001
DGENRE=Salsa
TTITLE0=Nostros
TTITLE1=Ya Me Enteré
TTITLE2=Madrigal
TTITLE3=Piel Canela
TTITLE4=Las Dos Puntas
TTITLE5=Bésame Mucho
TTITLE6=Beso Discreto
TTITLE7=Guajira Guantanamera
TTITLE8=Sabor A Mi
TTITLE9=Cariñoso
TTITLE10=Hasta Siempre
TTITLE11=Mamá, Son De La Loma
TTITLE12=Yolanda
TTITLE13=Cantinero De Cuba
EXTD=YEAR: 2001
EXTT0=
EXTT1=
EXTT2=
EXTT3=
EXTT4=
EXTT5=
EXTT6=
EXTT7=
EXTT8=
EXTT9=
EXTT10=
EXTT11=
EXTT12=
EXTT13=
PLAYORDER=
